<svg t="1709796738020" class="icon" viewBox="0 0 1024 1024" version="1.1" xmlns="http://www.w3.org/2000/svg" p-id="4447"
  width="200" height="200">
  <path
    d="M938.666667 704a21.333333 21.333333 0 0 0-21.333334-21.333333H896V256a85.333333 85.333333 0 0 0-85.333333-85.333333h-256V106.666667a21.333333 21.333333 0 0 0-21.333334-21.333334h-42.666666a21.333333 21.333333 0 0 0-21.333334 21.333334V170.666667H213.333333a85.333333 85.333333 0 0 0-85.333333 85.333333v426.666667h-21.333333a21.333333 21.333333 0 0 0-21.333334 21.333333v42.666667a21.333333 21.333333 0 0 0 21.333334 21.333333h205.226666l-92.586666 132.266667a32.426667 32.426667 0 0 0-5.973334 18.346666v9.386667a10.666667 10.666667 0 0 0 10.666667 10.666667h50.346667a42.666667 42.666667 0 0 0 34.986666-18.346667L416 768h192l106.666667 152.32a42.666667 42.666667 0 0 0 34.986666 18.346667h50.346667a10.666667 10.666667 0 0 0 10.666667-10.666667v-9.386667a32.426667 32.426667 0 0 0-5.973334-18.346666L712.106667 768h205.226666a21.333333 21.333333 0 0 0 21.333334-21.333333z m-128-21.333333H213.333333V256h597.333334z"
    p-id="4448"></path>
</svg>