<svg t="1710492566083" class="icon" viewBox="0 0 1024 1024" version="1.1" xmlns="http://www.w3.org/2000/svg" p-id="4359"
  width="200" height="200">
  <path
    d="M880.64 336.782222c13.653333-25.031111 22.755556-54.613333 22.755556-86.471111 0-95.573333-77.368889-172.942222-170.666667-172.942222-54.613333 0-104.675556 27.306667-134.257778 65.991111 116.053333 27.306667 216.177778 95.573333 282.168889 193.422222zM411.875556 145.635556c-31.857778-40.96-79.644444-65.991111-136.533334-65.991112C182.044444 79.644444 104.675556 154.737778 104.675556 250.311111c0 31.857778 9.102222 59.164444 22.755555 86.471111 65.991111-97.848889 166.115556-166.115556 284.444445-191.146666z m93.297777 52.337777C295.822222 197.973333 125.155556 368.64 125.155556 577.991111S295.822222 958.008889 505.173333 958.008889s380.017778-170.666667 380.017778-380.017778c-2.275556-209.351111-170.666667-380.017778-380.017778-380.017778z m179.768889 425.528889h-216.177778V339.057778H523.377778v225.28h159.288889v59.164444z m0 0"
    fill="" p-id="4360"></path>
</svg>