<svg t="1709866365982" class="icon" viewBox="0 0 1024 1024" version="1.1" xmlns="http://www.w3.org/2000/svg" p-id="8146"
  width="200" height="200">
  <path
    d="M428.032 819.968c-15.424 0-28.032 12.48-28.032 28.032l0 84.032c0 15.488 12.48 28.032 28.032 28.032s28.032-12.48 28.032-28.032l0-84.032C456 832.448 443.52 819.968 428.032 819.968zM260.032 819.968c-15.424 0-28.032 12.48-28.032 28.032l0 84.032c0 15.488 12.48 28.032 28.032 28.032s28.032-12.48 28.032-28.032l0-84.032C288 832.448 275.52 819.968 260.032 819.968zM596.032 819.968c-15.424 0-28.032 12.48-28.032 28.032l0 84.032c0 15.488 12.48 28.032 28.032 28.032s28.032-12.48 28.032-28.032l0-84.032C624 832.448 611.52 819.968 596.032 819.968zM709.888 204.736c-41.088-83.328-126.656-140.8-225.856-140.8-132.992 0-241.536 102.976-251.072 233.6-97.792 27.904-168.96 113.344-168.96 214.4 0 119.232 99.136 216.512 224 223.36 0 0 401.344 0.64 406.016 0.64 146.944 0 265.984-118.976 265.984-265.984C960 328.448 849.344 212.992 709.888 204.736zM764.032 819.968c-15.424 0-28.032 12.48-28.032 28.032l0 84.032c0 15.488 12.48 28.032 28.032 28.032s28.032-12.48 28.032-28.032l0-84.032C792 832.448 779.52 819.968 764.032 819.968z"
    p-id="8147"></path>
</svg>