<svg t="1709878620613" class="icon" viewBox="0 0 1024 1024" version="1.1" xmlns="http://www.w3.org/2000/svg"
  p-id="11869" width="200" height="200">
  <path
    d="M512 1024C229.218462 1024 0 794.781538 0 512S229.218462 0 512 0s512 229.218462 512 512-229.218462 512-512 512z m0-134.104615c188.514462 0 329.137231-133.080615 329.137231-304.758154 0-18.274462-140.622769 41.747692-329.137231 41.747692-188.514462 0-329.137231-60.022154-329.137231-41.747692 0 171.677538 140.622769 304.758154 329.137231 304.758154zM659.692308 492.307692a68.923077 68.923077 0 1 0 0-137.846154 68.923077 68.923077 0 0 0 0 137.846154z m-315.076923 0a68.923077 68.923077 0 1 0 0-137.846154 68.923077 68.923077 0 0 0 0 137.846154z"
    fill="#000000" p-id="11870"></path>
</svg>