<svg t="1711692125817" class="icon" viewBox="0 0 1024 1024" version="1.1" xmlns="http://www.w3.org/2000/svg" p-id="2578"
  width="32" height="32">
  <path
    d="M298.666667 896H149.333333c-12.8 0-21.333333-8.533333-21.333333-21.333333V725.333333c0-25.6-17.066667-42.666667-42.666667-42.666666s-42.666667 17.066667-42.666666 42.666666v149.333334C42.666667 934.4 89.6 981.333333 149.333333 981.333333H298.666667c25.6 0 42.666667-17.066667 42.666666-42.666666s-17.066667-42.666667-42.666666-42.666667zM938.666667 682.666667c-25.6 0-42.666667 17.066667-42.666667 42.666666v149.333334c0 12.8-8.533333 21.333333-21.333333 21.333333H725.333333c-25.6 0-42.666667 17.066667-42.666666 42.666667s17.066667 42.666667 42.666666 42.666666h149.333334c59.733333 0 106.666667-46.933333 106.666666-106.666666V725.333333c0-25.6-17.066667-42.666667-42.666666-42.666666zM874.666667 42.666667H725.333333c-25.6 0-42.666667 17.066667-42.666666 42.666666s17.066667 42.666667 42.666666 42.666667h149.333334c12.8 0 21.333333 8.533333 21.333333 21.333333V298.666667c0 25.6 17.066667 42.666667 42.666667 42.666666s42.666667-17.066667 42.666666-42.666666V149.333333C981.333333 89.6 934.4 42.666667 874.666667 42.666667zM85.333333 341.333333c25.6 0 42.666667-17.066667 42.666667-42.666666V149.333333c0-12.8 8.533333-21.333333 21.333333-21.333333H298.666667c25.6 0 42.666667-17.066667 42.666666-42.666667s-17.066667-42.666667-42.666666-42.666666H149.333333C89.6 42.666667 42.666667 89.6 42.666667 149.333333V298.666667c0 25.6 17.066667 42.666667 42.666666 42.666666zM721.066667 661.333333c12.8-21.333333 4.266667-46.933333-17.066667-59.733333-21.333333-12.8-46.933333-4.266667-59.733333 17.066667 0 0-38.4 64-132.266667 64s-132.266667-59.733333-132.266667-64c-12.8-21.333333-38.4-25.6-59.733333-17.066667-21.333333 12.8-25.6 38.4-17.066667 59.733333 4.266667 4.266667 64 106.666667 209.066667 106.666667s204.8-102.4 209.066667-106.666667zM512 512c25.6 0 42.666667-17.066667 42.666667-42.666667V298.666667c0-25.6-17.066667-42.666667-42.666667-42.666667s-42.666667 17.066667-42.666667 42.666667v170.666666c0 25.6 17.066667 42.666667 42.666667 42.666667zM725.333333 384c25.6 0 42.666667-17.066667 42.666667-42.666667V298.666667c0-25.6-17.066667-42.666667-42.666667-42.666667s-42.666667 17.066667-42.666666 42.666667v42.666666c0 25.6 17.066667 42.666667 42.666666 42.666667zM298.666667 256c-25.6 0-42.666667 17.066667-42.666667 42.666667v42.666666c0 25.6 17.066667 42.666667 42.666667 42.666667s42.666667-17.066667 42.666666-42.666667V298.666667c0-25.6-17.066667-42.666667-42.666666-42.666667z"
    p-id="2579"></path>
</svg>