<svg t="1711000122333" class="icon" viewBox="0 0 1024 1024" version="1.1" xmlns="http://www.w3.org/2000/svg" p-id="6912"
  width="200" height="200">
  <path
    d="M171.19179487 811.84820513c-6.82666667 0-11.55282051-5.77641026-11.55282051-11.55282051v-153.86256411c0-22.58051282 18.37948718-40.43487179 40.43487179-40.43487179h212.67692308l0.52512821-15.22871795c2.62564103-45.16102564-5.77641026-149.13641026-49.36205129-218.97846154-22.58051282-36.23384615-33.60820513-70.36717949-33.60820512-105.55076923 0-99.77435897 81.39487179-181.69435897 181.69435897-181.69435897 89.27179487 0 164.36512821 67.21641026 179.06871795 155.43794871 7.35179487 43.06051282-3.15076923 85.07076923-31.50769231 131.28205129-43.06051282 70.36717949-50.9374359 173.8174359-48.83692308 219.50358974l0.52512821 15.22871795h212.15179487c22.58051282 0 40.43487179 18.37948718 40.4348718 40.43487179V800.82051282c0 6.82666667-5.77641026 11.55282051-11.55282052 11.55282051H171.19179487v-0.5251282z m614.4 109.22666666H241.03384615c-15.75384615 0-29.40717949-13.65333333-27.83179487-30.45743589 1.05025641-14.70358974 14.17846154-25.73128205 28.88205128-25.73128205H785.06666667c15.22871795-0.52512821 27.83179487 11.55282051 28.35692307 27.30666666 0.52512821 15.22871795-11.55282051 27.83179487-27.30666666 28.35692308l-0.52512821 0.5251282z"
    p-id="6913"></path>
</svg>