<svg t="1710840766739" class="icon" viewBox="0 0 1024 1024" version="1.1" xmlns="http://www.w3.org/2000/svg" p-id="4940"
  width="200" height="200">
  <path d="M509.1328 513.1264m-450.816 0a450.816 450.816 0 1 0 901.632 0 450.816 450.816 0 1 0-901.632 0Z"
    fill="#FFBC42" p-id="4941"></path>
  <path
    d="M498.6368 197.2224c-150.6304 7.7824-273.2032 129.7408-281.6 280.3712-4.7104 84.1216 25.5488 161.1264 77.5168 217.9584 4.3008 4.7104 6.8096 10.7008 6.8096 17.0496v81.664c0 17.7664 18.0224 29.7984 34.4064 22.9888l83.0464-34.4576c5.2224-2.1504 10.9568-2.4064 16.4352-0.9216 26.88 7.424 55.296 11.1616 84.6336 10.5984 155.6992-2.816 284.7232-127.7952 292.096-283.392 8.2944-176.3328-136.8064-320.9728-313.344-311.8592z m146.688 277.1968h-29.7984l-12.4928 45.7216h12.9536c19.8144 0 35.8912 16.0768 35.8912 35.8912 0 19.8144-16.0768 35.8912-35.8912 35.8912h-32.6144l-6.5536 23.9616c-4.352 15.9744-18.8416 26.4192-34.6112 26.4192a35.90656 35.90656 0 0 1-34.6624-45.3632l1.3824-4.9664h-41.472l-6.5536 23.9616c-4.352 15.9744-18.8416 26.4192-34.6112 26.4192a35.90656 35.90656 0 0 1-34.6624-45.3632l1.3824-4.9664h-9.472c-19.8144 0-35.8912-16.0768-35.8912-35.8912 0-19.8144 16.0768-35.8912 35.8912-35.8912h29.1328l12.4928-45.7216h-12.3392c-19.8144 0-35.8912-16.0768-35.8912-35.8912 0-19.8144 16.0768-35.8912 35.8912-35.8912h32l7.2192-26.4704c5.2224-19.1488 24.9856-30.4128 44.0832-25.1392a35.90656 35.90656 0 0 1 25.1392 44.0832l-2.048 7.5264h41.5232l7.2192-26.4704c5.2224-19.1488 24.9856-30.4128 44.0832-25.1392a35.90656 35.90656 0 0 1 25.1392 44.0832l-2.048 7.5264h10.1376c19.8144 0 35.8912 16.0768 35.8912 35.8912 0.0512 19.712-16.0256 35.7888-35.84 35.7888z"
    fill="#FFFFFF" p-id="4942"></path>
  <path d="M487.1168 520.1408h41.472l12.544-45.7216h-41.5232z" fill="#FFFFFF" p-id="4943"></path>
</svg>