<svg t="1709796778653" class="icon" viewBox="0 0 1024 1024" version="1.1" xmlns="http://www.w3.org/2000/svg" p-id="5542"
  width="200" height="200">
  <path
    d="M581.485714 662.619429c-16.768 62.665143-17.225143 114.925714-1.353143 156.781714 29.165714 76.946286 131.657143 99.090286 136.484572 119.259428C721.444571 958.848 580.132571 969.142857 500.260571 969.142857c-79.853714 0-177.810286-15.232-177.810285-30.482286 0-15.232 92.964571-35.456 121.216-120.685714 16.457143-49.682286 14.665143-106.752-5.412572-171.172571a51.346286 51.346286 0 0 1-15.451428 2.340571c-21.778286 0-39.917714-13.348571-43.830857-30.976-15.030857 9.874286-33.865143 15.725714-54.290286 15.725714-44.068571 0-80.658286-27.282286-87.899429-63.158857a82.907429 82.907429 0 0 1-19.145143 2.212572C178.230857 572.946286 146.285714 545.664 146.285714 512c0-22.729143 14.555429-42.550857 36.150857-53.028571-11.099429-6.930286-18.304-18.139429-18.304-30.774858 0-4.388571 0.859429-8.612571 2.468572-12.544C154.368 410.221714 146.285714 400.822857 146.285714 390.089143c0-13.293714 12.470857-24.594286 29.842286-28.763429C157.933714 350.171429 146.285714 333.056 146.285714 313.910857c0-30.409143 29.312-55.588571 67.638857-60.214857a61.586286 61.586286 0 0 1-14.116571-38.838857c0-37.869714 35.931429-68.571429 80.274286-68.571429 4.461714 0 8.850286 0.310857 13.129143 0.914286 10.697143-27.117714 40.722286-46.628571 76.068571-46.628571 9.819429 0 19.218286 1.499429 27.922286 4.260571C403.236571 76.416 432.384 54.857143 467.382857 54.857143c35.803429 0 65.462857 22.528 70.582857 51.876571 13.074286-13.092571 32.548571-21.394286 54.308572-21.394285 39.405714 0 71.350857 27.282286 71.350857 60.946285 0 11.337143-3.638857 21.961143-9.947429 31.067429 3.236571-0.384 6.564571-0.585143 9.947429-0.585143 36.681143 0 66.925714 23.643429 70.912 54.089143a80.457143 80.457143 0 0 1 36.114286-8.374857c39.424 0 71.369143 27.282286 71.369142 60.946285 0 22.948571-14.848 42.934857-36.790857 53.339429 21.942857 10.386286 36.790857 30.372571 36.790857 53.321143 0 19.931429-11.209143 37.650286-28.525714 48.768 6.692571 7.643429 10.678857 17.133714 10.678857 27.428571 0 3.949714-0.585143 7.771429-1.682285 11.410286 32.914286 15.597714 55.204571 45.586286 55.204571 80.018286 0 50.486857-47.908571 91.428571-107.044571 91.428571-15.36 0-29.988571-2.761143-43.190858-7.753143-16.201143 14.189714-38.820571 22.985143-63.835428 22.985143a99.017143 99.017143 0 0 1-54.034286-15.542857c-7.68 6.528-17.334857 11.355429-28.123428 13.787429z"
    p-id="5543"></path>
</svg>